<?xml version="1.0" encoding="UTF-8"?>
<svg id="Layer_1" xmlns="http://www.w3.org/2000/svg" version="1.1" viewBox="0 0 128 128">
  <!-- Generator: Adobe Illustrator 30.1.0, SVG Export Plug-In . SVG Version: 2.1.1 Build 136)  -->
  <path id="background" d="M64,127.5C28.99,127.5.5,99.01.5,64S28.99.5,64,.5s63.5,28.49,63.5,63.5-28.49,63.5-63.5,63.5Z" fill="#fff"/>
  <path id="border" d="M64,1c34.74,0,63,28.26,63,63s-28.26,63-63,63S1,98.74,1,64,29.26,1,64,1M64,0C28.65,0,0,28.65,0,64s28.65,64,64,64,64-28.65,64-64S99.35,0,64,0h0Z" fill="#e5e5e5"/>
  <path d="M74.04,18.08c-3.16-1.01-6.6-1.58-10.11-1.58-10.11,0-19.23,4.59-25.33,11.84l15.65,13.13,19.8-23.39s-.01,0-.01,0Z" fill="#1a73e8"/>
  <path d="M38.6,28.34c-4.81,5.74-7.75,13.2-7.75,21.24,0,6.24,1.22,11.26,3.31,15.78l20.09-23.9-15.65-13.13h0Z" fill="#ea4335"/>
  <path d="M64,36.94c7.04,0,12.7,5.67,12.7,12.7,0,3.09-1.15,5.96-3.02,8.18,0,0,9.98-11.91,19.73-23.46-4.02-7.75-10.97-13.64-19.38-16.29l-19.8,23.39c2.37-2.73,5.81-4.52,9.76-4.52" fill="#4285f4"/>
  <path d="M64,62.28c-7.04,0-12.7-5.67-12.7-12.7,0-3.09,1.08-5.96,2.94-8.1l-20.09,23.9c3.44,7.61,9.18,13.77,15.07,21.45l24.47-29.06c-2.37,2.8-5.81,4.52-9.69,4.52" fill="#fbbc04"/>
  <path d="M73.25,94.86c11.05-17.29,23.9-25.12,23.9-45.2,0-5.52-1.37-10.69-3.73-15.28l-44.19,52.45c1.87,2.44,3.8,5.23,5.67,8.1,6.75,10.4,4.88,16.58,9.18,16.58s2.44-6.24,9.18-16.64" fill="#34a853"/>
</svg>