<?xml version="1.0" encoding="UTF-8"?>
<svg id="Layer_1" xmlns="http://www.w3.org/2000/svg" version="1.1" viewBox="0 0 128 128">
  <!-- Generator: Adobe Illustrator 30.1.0, SVG Export Plug-In . SVG Version: 2.1.1 Build 136)  -->
  <path id="background" d="M64,127.5C28.99,127.5.5,99.01.5,64S28.99.5,64,.5s63.5,28.49,63.5,63.5-28.49,63.5-63.5,63.5Z" fill="#34e0a1"/>
  <path id="border" d="M64,1c34.74,0,63,28.26,63,63s-28.26,63-63,63S1,98.74,1,64,29.26,1,64,1M64,0C28.65,0,0,28.65,0,64s28.65,64,64,64,64-28.65,64-64S99.35,0,64,0h0Z" fill="#44ce97"/>
  <ellipse cx="40.5" cy="68.77" rx="8.33" ry="8.32"/>
  <path d="M87.48,60.45h0c-4.6,0-8.33,3.72-8.33,8.32s3.73,8.32,8.34,8.32,8.33-3.72,8.33-8.32-3.73-8.31-8.33-8.32h-.01Z"/>
  <path d="M103.31,51.44l7.69-8.35h-17.03c-18.07-12.27-41.82-12.27-59.89,0h-17.08l7.69,8.35c-4.89,4.44-7.67,10.73-7.66,17.32,0,12.95,10.52,23.44,23.49,23.44,5.92,0,11.63-2.22,15.96-6.25l7.52,8.17,7.52-8.17c4.34,4.02,10.04,6.25,15.96,6.24,12.97,0,23.5-10.5,23.5-23.44h0c0-6.6-2.78-12.89-7.66-17.33v.02h0ZM40.51,84.64c-8.78,0-15.9-7.1-15.9-15.87s7.12-15.87,15.9-15.87,15.9,7.1,15.9,15.87h0c0,8.76-7.12,15.87-15.9,15.87ZM64,68.31c0-10.44-7.61-19.4-17.64-23.23,11.29-4.69,23.99-4.69,35.28,0h0c-10.03,3.83-17.64,12.79-17.64,23.23ZM103.38,68.77c0,8.76-7.12,15.87-15.9,15.87s-15.89-7.1-15.89-15.87,7.12-15.86,15.9-15.86,15.9,7.1,15.9,15.87h-.01Z"/>
</svg>