<?xml version="1.0" encoding="UTF-8"?>
<svg id="Layer_1" xmlns="http://www.w3.org/2000/svg" version="1.1" viewBox="0 0 32 32">
  <!-- Generator: Adobe Illustrator 30.1.0, SVG Export Plug-In . SVG Version: 2.1.1 Build 136)  -->
  <polygon points="13.18 18 21.25 23.6 18.82 14 13.18 18" fill="#006ac6"/>
  <path d="M16.01,0C7.16,0,0,7.16,0,16s7.16,16,16,16,16-7.16,16-16S24.83,0,16.01,0ZM23.05,25.64h-.01c-.3.41-.89.5-1.31.2l-9.37-6.78c-.11-.07-.21-.17-.27-.29-.09-.1-.16-.22-.19-.35l-3.09-11.24c-.11-.39.04-.8.37-1.02.15-.12.34-.18.54-.18s.39.07.54.2l9.37,6.78c.11.07.21.17.27.29.09.1.16.22.19.35l3.09,11.24c.08.27.03.57-.13.8Z" fill="#006ac6"/>
</svg>